<svg width="145" height="18" viewBox="0 0 145 18" fill="none" xmlns="http://www.w3.org/2000/svg">
<path d="M5.12615 17.4288L0.486328 1.03728H3.31586L6.7615 13.8462L10.481 1.03728H12.9606L16.6572 13.8462L20.1105 1.03728H22.94L18.3002 17.4288H15.1892L11.7284 5.46412L8.23711 17.4288H5.12615Z" fill="white"/>
<path d="M25.0469 1.03728H27.7395V17.4288H25.0469V1.03728Z" fill="white"/>
<path d="M33.7102 14.8503H40.3809V17.4288H31.0176V1.03728H33.7102V14.8503Z" fill="white"/>
<path d="M48.8165 1.03728C51.068 1.03728 52.9391 1.83593 54.4147 3.40283C55.9132 4.96972 56.6662 6.91692 56.6662 9.23683C56.6662 11.5339 55.9132 13.4735 54.4147 15.0708C52.9391 16.6377 51.068 17.4364 48.8165 17.4364H42.374V1.03728H48.8165ZM48.8165 14.8503C50.3606 14.8503 51.6232 14.3102 52.5892 13.2605C53.5704 12.2033 54.0649 10.8494 54.0649 9.23683C54.0649 7.60148 53.5704 6.26278 52.5892 5.21312C51.6308 4.15585 50.3682 3.62341 48.8165 3.62341H45.0666V14.8655H48.8165V14.8503Z" fill="white"/>
<path d="M71.0569 12.7433C71.0569 14.0744 70.5853 15.2001 69.6269 16.0901C68.6685 16.98 67.5199 17.4212 66.1356 17.4212H59.1074V1.03728H65.6184C66.9571 1.03728 68.1056 1.48605 69.0184 2.34555C69.954 3.21267 70.4255 4.29276 70.4255 5.57822C70.4255 7.0082 69.8627 8.1035 68.7598 8.92497C70.1897 9.67799 71.0569 11.0395 71.0569 12.7433ZM61.8076 3.56256V7.8677H65.626C66.8202 7.8677 67.7329 6.93213 67.7329 5.71513C67.7329 4.49813 66.8202 3.56256 65.626 3.56256H61.8076ZM66.1432 14.8959C67.383 14.8959 68.3642 13.8919 68.3642 12.5988C68.3642 11.3133 67.383 10.3017 66.1432 10.3017H61.8076V14.8883H66.1432V14.8959Z" fill="white"/>
<path d="M76.093 14.8503H83.3494V17.4288H73.4004V1.03728H83.2353V3.6158H76.093V7.87531H82.6496V10.431H76.093V14.8503Z" fill="white"/>
<path d="M95.1538 17.4288L91.6853 11.4579H88.4983V17.4288H85.8057V1.03728H92.3623C93.8379 1.03728 95.0777 1.5545 96.0817 2.58135C97.1086 3.58538 97.6258 4.8328 97.6258 6.30081C97.6258 8.38493 96.3175 10.2789 94.3703 11.0547L98.0898 17.4212H95.1538V17.4288ZM88.4983 3.56256V9.03907H92.3623C93.7922 9.03907 94.9408 7.82206 94.9408 6.30081C94.9408 4.77956 93.7922 3.56256 92.3623 3.56256H88.4983Z" fill="white"/>
<path d="M109.507 17.4288L106.039 11.4579H102.852V17.4288H100.159V1.03728H106.716C108.191 1.03728 109.431 1.5545 110.435 2.58135C111.462 3.58538 111.979 4.8328 111.979 6.30081C111.979 8.38493 110.671 10.2789 108.724 11.0547L112.443 17.4212H109.507V17.4288ZM102.852 3.56256V9.03907H106.716C108.146 9.03907 109.294 7.82206 109.294 6.30081C109.294 4.77956 108.146 3.56256 106.716 3.56256H102.852Z" fill="white"/>
<path d="M114.512 1.03728H117.204V17.4288H114.512V1.03728Z" fill="white"/>
<path d="M123.175 14.8503H130.431V17.4288H120.482V1.03728H130.317V3.6158H123.175V7.87531H129.732V10.431H123.175V14.8503Z" fill="white"/>
<path d="M132.029 13.7017L134.349 12.3402C135.003 14.1885 136.365 15.1013 138.426 15.1013C140.465 15.1013 141.469 14.2342 141.469 12.9487C141.469 12.2717 141.187 11.7773 140.647 11.4274C140.107 11.0776 139.126 10.6744 137.742 10.2561C136.175 9.78449 135.399 9.48024 134.296 8.75764C133.239 8.00462 132.706 6.93214 132.706 5.45652C132.706 4.00373 133.223 2.85518 134.25 2.01088C135.285 1.15138 136.525 0.733032 137.977 0.733032C140.602 0.733032 142.64 2.09455 143.69 4.3384L141.415 5.64668C140.738 4.12543 139.59 3.34959 137.97 3.34959C136.403 3.34959 135.391 4.14824 135.391 5.38807C135.391 6.60507 136.19 7.16793 138.692 7.94377C139.324 8.15675 139.772 8.29366 140.054 8.41536C140.358 8.50663 140.754 8.67397 141.271 8.88695C141.811 9.09992 142.206 9.32811 142.465 9.54109C143.332 10.218 144.268 11.3438 144.154 12.9107C144.154 14.3863 143.614 15.5805 142.541 16.4476C141.484 17.3147 140.084 17.733 138.35 17.733C135.194 17.733 132.896 16.2118 132.029 13.7017Z" fill="white"/>
</svg>
